<svg xmlns="http://www.w3.org/2000/svg" viewBox="0 0 512 512" width="512" height="512">
  <defs>
    <linearGradient id="bg" x1="0" y1="0" x2="1" y2="1">
      <stop offset="0%" stop-color="#6366f1"/>
      <stop offset="100%" stop-color="#8b5cf6"/>
    </linearGradient>
  </defs>
  <rect width="512" height="512" rx="96" fill="url(#bg)"/>
  <g transform="translate(108 108)" fill="none" stroke="#ffffff" stroke-width="16" stroke-linecap="round" stroke-linejoin="round">
    <path d="M22 268 V54 a22 22 0 0 1 22 -22 h132 a22 22 0 0 1 22 22 V268"/>
    <path d="M302 268 V54 a22 22 0 0 0 -22 -22 H148 a22 22 0 0 0 -22 22 V268"/>
    <path d="M22 268 a22 22 0 0 0 22 22 h132 a22 22 0 0 1 22 22 v0 a22 22 0 0 1 -22 22 H44 a22 22 0 0 1 -22 -22 Z" fill="#ffffff"/>
    <path d="M302 268 a22 22 0 0 1 -22 22 H148 a22 22 0 0 0 -22 22 v0 a22 22 0 0 0 22 22 h132 a22 22 0 0 0 22 -22 Z" fill="#ffffff"/>
    <line x1="54" y1="92" x2="160" y2="92"/>
    <line x1="54" y1="128" x2="214" y2="128"/>
    <line x1="54" y1="164" x2="198" y2="164"/>
    <circle cx="246" cy="92" r="16" fill="#ffffff" stroke="none"/>
    <circle cx="246" cy="128" r="11" stroke="#ffffff"/>
    <circle cx="246" cy="164" r="11" stroke="#ffffff"/>
  </g>
</svg>